# xmcd CD database file
#
# Track frame offsets:
#	150
#	15117
#	28443
#	40287
#	51415
#	65843
#	77595
#	91443
#	104752
#	119427
#	133045
#	151588
#	173979
#	182441
#	191713
#	203935
#	221448
#	247930
#	260020
#	272173
#
# Disc length: 3968 seconds
#
# Revision: 1
# Processed by: cddbd v1.5.2PL0 Copyright (c) Steve Scherf et al.
# Submitted via: CDex 1.79
#
DISCID=230f7e14
DTITLE=Ella Fitzgerald - The Absolutely Essential Collection
DYEAR=1900
DGENRE=Jazz
TTITLE0=Ella Fitzgerald - Love and Kisses
TTITLE1=Ella Fitzgerald - (If You Can't Sing It) You'll Have to Swing It
TTITLE2=Ella Fitzgerald - A-Tisket, A-Tasket
TTITLE3=Ella Fitzgerald - Flying Home
TTITLE4=Ella Fitzgerald - Oh, Lady Be Good
TTITLE5=Ella Fitzgerald - Imagination
TTITLE6=Ella Fitzgerald - You Leave Me Breathless
TTITLE7=Ella Fitzgerald - Until the Real Thing Comes Along
TTITLE8=Ella Fitzgerald - How High the Moon
TTITLE9=Ella Fitzgerald - Miss Otis Regrets
TTITLE10=Ella Fitzgerald - It Never Entered My Mind
TTITLE11=Ella Fitzgerald - I Love Paris
TTITLE12=Ella Fitzgeral - Russian Lullaby
TTITLE13=Ella Fitzgerald - What Is This Thing Called Love?
TTITLE14=Ella Fitzgerald - I've Got You Under My Skin
TTITLE15=Ella Fitzgerald - Little Girl Blue
TTITLE16=Ella Fitzgerald - Love for Sale
TTITLE17=Ella Fitzgerald - Stone Cold Death in the Market (He Had It Coming)
TTITLE18=Ella Fitzgerald - Baby It's Cold Outside
TTITLE19=Ella Fitzgerald - The Nearness of You
EXTD=
EXTT0=
EXTT1=
EXTT2=
EXTT3=
EXTT4=
EXTT5=
EXTT6=
EXTT7=
EXTT8=
EXTT9=
EXTT10=
EXTT11=
EXTT12=
EXTT13=
EXTT14=
EXTT15=
EXTT16=
EXTT17=
EXTT18=
EXTT19=
PLAYORDER=
